ffmpeg started on 2016-12-09 at 13:22:03
Report written to "Output/x264/results/ffmpeg/sintelplacebo4500k.log"
Command line:
Tools/ffmpeg/ffmpeg -benchmark -y -i Input/y4m/sintel.y4m -c:v libx264 -preset placebo -b:v 4500k -an Output/x264/encoded/sintelplacebo4500k.mkv
ffmpeg version N-82227-gdb23fde Copyright (c) 2000-2016 the FFmpeg developers
  built with gcc 5.4.0 (Ubuntu 5.4.0-6ubuntu1~16.04.2) 20160609
  configuration: --prefix=/home/jaroslav/ffmpeg_build --pkg-config-flags=--static --extra-cflags=-I/home/jaroslav/ffmpeg_build/include --extra-ldflags=-L/home/jaroslav/ffmpeg_build/lib --bindir=/home/jaroslav/bin --enable-gpl --enable-libass --enable-libfdk-aac --enable-libfreetype --enable-libmp3lame --enable-libopus --enable-libtheora --enable-libvorbis --enable-libvpx --enable-libx264 --enable-libx265 --enable-nvenc --enable-libmfx --enable-libxvid --enable-libgsm --enable-libopencore-amrnb --enable-version3 --enable-nonfree
  libavutil      55. 35.100 / 55. 35.100
  libavcodec     57. 66.101 / 57. 66.101
  libavformat    57. 57.100 / 57. 57.100
  libavdevice    57.  2.100 / 57.  2.100
  libavfilter     6. 66.100 /  6. 66.100
  libswscale      4.  3.100 /  4.  3.100
  libswresample   2.  4.100 /  2.  4.100
  libpostproc    54.  2.100 / 54.  2.100
Input #0, yuv4mpegpipe, from 'Input/y4m/sintel.y4m':
  Duration: 00:00:20.83, start: 0.000000, bitrate: 2057307 kb/s
    Stream #0:0: Video: rawvideo (I420 / 0x30323449), yuv420p(progressive), 4096x1744, SAR 1:1 DAR 256:109, 24 fps, 24 tbr, 24 tbn, 24 tbc
[libx264 @ 0x42991c0] using SAR=1/1
[libx264 @ 0x42991c0] DPB size (16 frames, 446464 mbs) > level limit (6 frames, 184320 mbs)
[libx264 @ 0x42991c0] using cpu capabilities: MMX2 SSE2Fast SSSE3 SSE4.2 AVX FMA3 AVX2 LZCNT BMI2
[libx264 @ 0x42991c0] profile High, level 5.2
[libx264 @ 0x42991c0] 264 - core 148 - H.264/MPEG-4 AVC codec - Copyleft 2003-2016 - http://www.videolan.org/x264.html - options: cabac=1 ref=16 deblock=1:0:0 analyse=0x3:0x133 me=tesa subme=11 psy=1 psy_rd=1.00:0.00 mixed_ref=1 me_range=24 chroma_me=1 trellis=2 8x8dct=1 cqm=0 deadzone=21,11 fast_pskip=0 chroma_qp_offset=-2 threads=6 lookahead_threads=1 sliced_threads=0 nr=0 decimate=1 interlaced=0 bluray_compat=0 constrained_intra=0 bframes=16 b_pyramid=2 b_adapt=2 b_bias=0 direct=3 weightb=1 open_gop=0 weightp=2 keyint=250 keyint_min=24 scenecut=40 intra_refresh=0 rc_lookahead=60 rc=abr mbtree=1 bitrate=4500 ratetol=1.0 qcomp=0.60 qpmin=0 qpmax=69 qpstep=4 ip_ratio=1.40 aq=1:1.00
Output #0, matroska, to 'Output/x264/encoded/sintelplacebo4500k.mkv':
  Metadata:
    encoder         : Lavf57.57.100
    Stream #0:0: Video: h264 (libx264) (H264 / 0x34363248), yuv420p, 4096x1744 [SAR 1:1 DAR 256:109], q=-1--1, 4500 kb/s, 24 fps, 1k tbn, 24 tbc
    Metadata:
      encoder         : Lavc57.66.101 libx264
    Side data:
      cpb: bitrate max/min/avg: 0/0/4500000 buffer size: 0 vbv_delay: -1
Stream mapping:
  Stream #0:0 -> #0:0 (rawvideo (native) -> h264 (libx264))
Press [q] to stop, [?] for help
frame=    7 fps=0.0 q=0.0 size=       0kB time=00:00:00.00 bitrate=N/A speed=   0x    frame=   15 fps= 14 q=0.0 size=       0kB time=00:00:00.00 bitrate=N/A speed=   0x    frame=   23 fps= 14 q=0.0 size=       0kB time=00:00:00.00 bitrate=N/A speed=   0x    frame=   31 fps= 15 q=0.0 size=       0kB time=00:00:00.00 bitrate=N/A speed=   0x    frame=   39 fps= 15 q=0.0 size=       0kB time=00:00:00.00 bitrate=N/A speed=   0x    frame=   47 fps= 15 q=0.0 size=       0kB time=00:00:00.00 bitrate=N/A speed=   0x    frame=   55 fps= 15 q=0.0 size=       0kB time=00:00:00.00 bitrate=N/A speed=   0x    frame=   63 fps= 15 q=0.0 size=       0kB time=00:00:00.00 bitrate=N/A speed=   0x    frame=   71 fps=8.5 q=0.0 size=       0kB time=00:00:00.00 bitrate=N/A speed=   0x    frame=   72 fps=6.8 q=0.0 size=       0kB time=00:00:00.00 bitrate=N/A speed=   0x    frame=   80 fps=7.2 q=0.0 size=       0kB time=00:00:00.00 bitrate=N/A speed=   0x    frame=   84 fps=1.4 q=0.0 size=       0kB time=00:00:00.00 bitrate=N/A speed=   0x    frame=   86 fps=1.5 q=0.0 size=       0kB time=00:00:00.00 bitrate=N/A speed=   0x    frame=   88 fps=1.4 q=32.0 size=       1kB time=-00:00:00.08 bitrate=N/A speed=N/A    frame=   90 fps=1.4 q=36.0 size=       1kB time=00:00:00.00 bitrate=5888.0kbits/s speed=1.53e-05x    frame=   92 fps=1.3 q=44.0 size=       1kB time=00:00:00.08 bitrate=  70.1kbits/s speed=0.00123x    frame=   93 fps=1.3 q=49.0 size=       1kB time=00:00:00.12 bitrate=  46.7kbits/s speed=0.00175x    frame=   94 fps=1.3 q=48.0 size=       1kB time=00:00:00.16 bitrate=  35.0kbits/s speed=0.00231x    frame=   96 fps=1.3 q=49.0 size=       1kB time=00:00:00.25 bitrate=  23.5kbits/s speed=0.00339x    frame=   97 fps=1.3 q=49.0 size=       1kB time=00:00:00.29 bitrate=  20.1kbits/s speed=0.00393x    frame=   98 fps=1.3 q=49.0 size=       1kB time=00:00:00.33 bitrate=  17.6kbits/s speed=0.00444x    frame=   99 fps=1.2 q=49.0 size=       1kB time=00:00:00.37 bitrate=  15.7kbits/s speed=0.00472x    frame=  100 fps=1.2 q=48.0 size=       1kB time=00:00:00.41 bitrate=  14.1kbits/s speed=0.00522x    frame=  101 fps=1.2 q=49.0 size=       1kB time=00:00:00.45 bitrate=  12.8kbits/s speed=0.00556x    frame=  102 fps=1.2 q=49.0 size=       1kB time=00:00:00.50 bitrate=  11.8kbits/s speed=0.00604x    frame=  103 fps=1.2 q=49.0 size=       1kB time=00:00:00.54 bitrate=  10.8kbits/s speed=0.00643x    frame=  104 fps=1.2 q=49.0 size=       1kB time=00:00:00.58 bitrate=  10.1kbits/s speed=0.00681x    frame=  105 fps=1.1 q=49.0 size=       1kB time=00:00:00.62 bitrate=   9.4kbits/s speed=0.0068x    frame=  106 fps=1.1 q=49.0 size=       1kB time=00:00:00.66 bitrate=   8.8kbits/s speed=0.00703x    frame=  107 fps=1.1 q=49.0 size=       1kB time=00:00:00.70 bitrate=   8.3kbits/s speed=0.00738x    frame=  108 fps=1.1 q=49.0 size=       1kB time=00:00:00.75 bitrate=   7.8kbits/s speed=0.00756x    frame=  109 fps=1.1 q=49.0 size=       1kB time=00:00:00.79 bitrate=   7.4kbits/s speed=0.00777x    frame=  110 fps=1.0 q=49.0 size=       1kB time=00:00:00.83 bitrate=   7.1kbits/s speed=0.00795x    frame=  111 fps=1.0 q=49.0 size=       1kB time=00:00:00.87 bitrate=   6.7kbits/s speed=0.00803x    frame=  112 fps=1.0 q=48.0 size=       1kB time=00:00:00.91 bitrate=   6.4kbits/s speed=0.00826x    frame=  113 fps=1.0 q=48.0 size=       1kB time=00:00:00.95 bitrate=   6.1kbits/s speed=0.00843x    frame=  114 fps=1.0 q=48.0 size=       1kB time=00:00:01.00 bitrate=   5.9kbits/s speed=0.0087x    frame=  115 fps=1.0 q=48.0 size=       1kB time=00:00:01.04 bitrate=   5.6kbits/s speed=0.00897x    frame=  116 fps=1.0 q=48.0 size=       1kB time=00:00:01.08 bitrate=   5.4kbits/s speed=0.00913x    frame=  117 fps=0.9 q=48.0 size=       1kB time=00:00:01.12 bitrate=   5.2kbits/s speed=0.00913x    frame=  118 fps=0.9 q=48.0 size=       1kB time=00:00:01.16 bitrate=   5.0kbits/s speed=0.00938x    frame=  119 fps=0.9 q=48.0 size=       1kB time=00:00:01.20 bitrate=   4.9kbits/s speed=0.00952x    frame=  120 fps=0.9 q=48.0 size=       1kB time=00:00:01.25 bitrate=   4.7kbits/s speed=0.00964x    frame=  121 fps=0.9 q=48.0 size=       1kB time=00:00:01.29 bitrate=   4.6kbits/s speed=0.00982x    frame=  122 fps=0.9 q=48.0 size=       1kB time=00:00:01.33 bitrate=   4.4kbits/s speed=0.00994x    frame=  123 fps=0.9 q=48.0 size=       1kB time=00:00:01.37 bitrate=   4.3kbits/s speed=0.01x    frame=  124 fps=0.9 q=48.0 size=       1kB time=00:00:01.41 bitrate=   4.2kbits/s speed=0.0102x    frame=  125 fps=0.9 q=48.0 size=       1kB time=00:00:01.45 bitrate=   4.0kbits/s speed=0.0103x    frame=  126 fps=0.9 q=48.0 size=       1kB time=00:00:01.50 bitrate=   3.9kbits/s speed=0.0104x    frame=  127 fps=0.9 q=47.0 size=       1kB time=00:00:01.54 bitrate=   3.8kbits/s speed=0.0105x    frame=  128 fps=0.9 q=47.0 size=       1kB time=00:00:01.58 bitrate=   3.7kbits/s speed=0.0107x    frame=  129 fps=0.9 q=47.0 size=       1kB time=00:00:01.62 bitrate=   3.6kbits/s speed=0.0108x    frame=  130 fps=0.9 q=47.0 size=       1kB time=00:00:01.66 bitrate=   3.5kbits/s speed=0.0109x    frame=  131 fps=0.8 q=47.0 size=       1kB time=00:00:01.70 bitrate=   3.4kbits/s speed=0.011x    frame=  132 fps=0.8 q=47.0 size=       1kB time=00:00:01.75 bitrate=   3.4kbits/s speed=0.0111x    frame=  133 fps=0.8 q=47.0 size=       1kB time=00:00:01.79 bitrate=   3.3kbits/s speed=0.0112x    frame=  134 fps=0.8 q=47.0 size=       1kB time=00:00:01.83 bitrate=   3.2kbits/s speed=0.0114x    frame=  135 fps=0.8 q=47.0 size=       1kB time=00:00:01.87 bitrate=   3.1kbits/s speed=0.0114x    frame=  136 fps=0.8 q=47.0 size=       1kB time=00:00:01.91 bitrate=   3.1kbits/s speed=0.0115x    frame=  137 fps=0.8 q=47.0 size=       1kB time=00:00:01.95 bitrate=   3.0kbits/s speed=0.0116x    frame=  138 fps=0.8 q=47.0 size=       1kB time=00:00:02.00 bitrate=   2.9kbits/s speed=0.0117x    frame=  139 fps=0.8 q=47.0 size=       1kB time=00:00:02.04 bitrate=   2.9kbits/s speed=0.0117x    frame=  140 fps=0.8 q=47.0 size=       1kB time=00:00:02.08 bitrate=   2.8kbits/s speed=0.0118x    frame=  141 fps=0.8 q=47.0 size=       1kB time=00:00:02.12 bitrate=   2.8kbits/s speed=0.0117x    frame=  142 fps=0.8 q=47.0 size=       1kB time=00:00:02.16 bitrate=   2.7kbits/s speed=0.0118x    frame=  143 fps=0.8 q=47.0 size=       1kB time=00:00:02.20 bitrate=   2.7kbits/s speed=0.0119x    frame=  144 fps=0.8 q=47.0 size=       1kB time=00:00:02.25 bitrate=   2.6kbits/s speed=0.0119x    frame=  145 fps=0.8 q=47.0 size=       1kB time=00:00:02.29 bitrate=   2.6kbits/s speed=0.012x    frame=  146 fps=0.7 q=47.0 size=       1kB time=00:00:02.33 bitrate=   2.5kbits/s speed=0.012x    frame=  147 fps=0.7 q=47.0 size=       1kB time=00:00:02.37 bitrate=   2.5kbits/s speed=0.012x    frame=  148 fps=0.7 q=47.0 size=       1kB time=00:00:02.41 bitrate=   2.4kbits/s speed=0.0121x    frame=  149 fps=0.7 q=47.0 size=       1kB time=00:00:02.45 bitrate=   2.4kbits/s speed=0.0122x    frame=  150 fps=0.7 q=47.0 size=       1kB time=00:00:02.50 bitrate=   2.4kbits/s speed=0.0122x    frame=  151 fps=0.7 q=46.0 size=       1kB time=00:00:02.54 bitrate=   2.3kbits/s speed=0.0123x    frame=  152 fps=0.7 q=46.0 size=       1kB time=00:00:02.58 bitrate=   2.3kbits/s speed=0.0123x    frame=  153 fps=0.7 q=46.0 size=       1kB time=00:00:02.62 bitrate=   2.2kbits/s speed=0.0124x    frame=  154 fps=0.7 q=46.0 size=       1kB time=00:00:02.66 bitrate=   2.2kbits/s speed=0.0122x    frame=  155 fps=0.7 q=46.0 size=       1kB time=00:00:02.70 bitrate=   2.2kbits/s speed=0.0123x    frame=  156 fps=0.7 q=46.0 size=       1kB time=00:00:02.75 bitrate=   2.1kbits/s speed=0.0124x    frame=  157 fps=0.7 q=46.0 size=       1kB time=00:00:02.79 bitrate=   2.1kbits/s speed=0.0125x    frame=  158 fps=0.7 q=46.0 size=       1kB time=00:00:02.83 bitrate=   2.1kbits/s speed=0.0126x    frame=  159 fps=0.7 q=46.0 size=       1kB time=00:00:02.87 bitrate=   2.0kbits/s speed=0.0126x    frame=  160 fps=0.7 q=46.0 size=       1kB time=00:00:02.91 bitrate=   2.0kbits/s speed=0.0125x    frame=  161 fps=0.7 q=46.0 size=       1kB time=00:00:02.95 bitrate=   2.0kbits/s speed=0.0125x    frame=  162 fps=0.7 q=46.0 size=       1kB time=00:00:03.00 bitrate=   2.0kbits/s speed=0.0126x    frame=  163 fps=0.7 q=46.0 size=       1kB time=00:00:03.04 bitrate=   1.9kbits/s speed=0.0127x    frame=  164 fps=0.7 q=46.0 size=       1kB time=00:00:03.08 bitrate=   1.9kbits/s speed=0.0128x    frame=  165 fps=0.7 q=46.0 size=       1kB time=00:00:03.12 bitrate=   1.9kbits/s speed=0.0128x    frame=  166 fps=0.7 q=46.0 size=       1kB time=00:00:03.16 bitrate=   1.9kbits/s speed=0.0127x    frame=  167 fps=0.7 q=46.0 size=       1kB time=00:00:03.20 bitrate=   1.8kbits/s speed=0.0127x    frame=  168 fps=0.7 q=46.0 size=       1kB time=00:00:03.25 bitrate=   1.8kbits/s speed=0.0128x    frame=  169 fps=0.7 q=46.0 size=       1kB time=00:00:03.29 bitrate=   1.8kbits/s speed=0.0129x    frame=  170 fps=0.7 q=46.0 size=       1kB time=00:00:03.33 bitrate=   1.8kbits/s speed=0.013x    frame=  171 fps=0.7 q=46.0 size=       1kB time=00:00:03.37 bitrate=   1.7kbits/s speed=0.013x    frame=  172 fps=0.6 q=46.0 size=       1kB time=00:00:03.41 bitrate=   1.7kbits/s speed=0.0129x    frame=  173 fps=0.6 q=46.0 size=       1kB time=00:00:03.45 bitrate=   1.7kbits/s speed=0.0129x    frame=  174 fps=0.6 q=46.0 size=       1kB time=00:00:03.50 bitrate=   1.7kbits/s speed=0.013x    frame=  175 fps=0.6 q=46.0 size=       1kB time=00:00:03.54 bitrate=   1.7kbits/s speed=0.013x    frame=  176 fps=0.6 q=46.0 size=       1kB time=00:00:03.58 bitrate=   1.6kbits/s speed=0.013x    frame=  177 fps=0.6 q=46.0 size=       1kB time=00:00:03.62 bitrate=   1.6kbits/s speed=0.0131x    frame=  178 fps=0.6 q=46.0 size=       1kB time=00:00:03.66 bitrate=   1.6kbits/s speed=0.013x    frame=  179 fps=0.6 q=46.0 size=       1kB time=00:00:03.70 bitrate=   1.6kbits/s speed=0.0131x    frame=  180 fps=0.6 q=46.0 size=       1kB time=00:00:03.75 bitrate=   1.6kbits/s speed=0.0131x    frame=  181 fps=0.6 q=46.0 size=       1kB time=00:00:03.79 bitrate=   1.6kbits/s speed=0.0132x    frame=  182 fps=0.6 q=46.0 size=       1kB time=00:00:03.83 bitrate=   1.5kbits/s speed=0.0132x    frame=  183 fps=0.6 q=46.0 size=       1kB time=00:00:03.87 bitrate=   1.5kbits/s speed=0.0133x    frame=  184 fps=0.6 q=46.0 size=       1kB time=00:00:03.91 bitrate=   1.5kbits/s speed=0.0132x    frame=  185 fps=0.6 q=45.0 size=       1kB time=00:00:03.95 bitrate=   1.5kbits/s speed=0.0132x    frame=  186 fps=0.6 q=46.0 size=       1kB time=00:00:04.00 bitrate=   1.5kbits/s speed=0.0132x    frame=  187 fps=0.6 q=45.0 size=       1kB time=00:00:04.04 bitrate=   1.5kbits/s speed=0.0133x    frame=  188 fps=0.6 q=45.0 size=       1kB time=00:00:04.08 bitrate=   1.4kbits/s speed=0.0133x    frame=  189 fps=0.6 q=45.0 size=       1kB time=00:00:04.12 bitrate=   1.4kbits/s speed=0.0134x    frame=  190 fps=0.6 q=45.0 size=       1kB time=00:00:04.16 bitrate=   1.4kbits/s speed=0.0135x    frame=  191 fps=0.6 q=45.0 size=       1kB time=00:00:04.20 bitrate=   1.4kbits/s speed=0.0134x    frame=  192 fps=0.6 q=45.0 size=       1kB time=00:00:04.25 bitrate=   1.4kbits/s speed=0.0135x    frame=  193 fps=0.6 q=45.0 size=       1kB time=00:00:04.29 bitrate=   1.4kbits/s speed=0.0135x    frame=  194 fps=0.6 q=45.0 size=       1kB time=00:00:04.33 bitrate=   1.4kbits/s speed=0.0136x    frame=  195 fps=0.6 q=45.0 size=       1kB time=00:00:04.37 bitrate=   1.3kbits/s speed=0.0136x    frame=  196 fps=0.6 q=45.0 size=       1kB time=00:00:04.41 bitrate=   1.3kbits/s speed=0.0137x    frame=  197 fps=0.6 q=45.0 size=       1kB time=00:00:04.45 bitrate=   1.3kbits/s speed=0.0136x    frame=  198 fps=0.6 q=45.0 size=       1kB time=00:00:04.50 bitrate=   1.3kbits/s speed=0.0136x    frame=  199 fps=0.6 q=45.0 size=       1kB time=00:00:04.54 bitrate=   1.3kbits/s speed=0.0137x    frame=  200 fps=0.6 q=45.0 size=       1kB time=00:00:04.58 bitrate=   1.3kbits/s speed=0.0137x    frame=  201 fps=0.6 q=45.0 size=       1kB time=00:00:04.62 bitrate=   1.3kbits/s speed=0.0138x    frame=  202 fps=0.6 q=45.0 size=       1kB time=00:00:04.66 bitrate=   1.3kbits/s speed=0.0138x    frame=  203 fps=0.6 q=45.0 size=       1kB time=00:00:04.70 bitrate=   1.3kbits/s speed=0.0138x    frame=  204 fps=0.6 q=45.0 size=       1kB time=00:00:04.75 bitrate=   1.2kbits/s speed=0.0136x    frame=  205 fps=0.6 q=45.0 size=       1kB time=00:00:04.79 bitrate=   1.2kbits/s speed=0.0137x    frame=  206 fps=0.6 q=45.0 size=       1kB time=00:00:04.83 bitrate=   1.2kbits/s speed=0.0137x    frame=  207 fps=0.6 q=45.0 size=       1kB time=00:00:04.87 bitrate=   1.2kbits/s speed=0.0138x    frame=  208 fps=0.6 q=45.0 size=    2861kB time=00:00:04.91 bitrate=4765.3kbits/s speed=0.0139x    frame=  209 fps=0.6 q=45.0 size=    2861kB time=00:00:04.95 bitrate=4725.9kbits/s speed=0.0139x    frame=  210 fps=0.6 q=45.0 size=    2861kB time=00:00:05.00 bitrate=4686.2kbits/s speed=0.014x    frame=  211 fps=0.6 q=45.0 size=    2861kB time=00:00:05.04 bitrate=4647.2kbits/s speed=0.0138x    frame=  212 fps=0.6 q=45.0 size=    2861kB time=00:00:05.08 bitrate=4609.7kbits/s speed=0.0138x    frame=  213 fps=0.6 q=45.0 size=    2861kB time=00:00:05.12 bitrate=4572.0kbits/s speed=0.0138x    frame=  214 fps=0.6 q=45.0 size=    2861kB time=00:00:05.16 bitrate=4534.8kbits/s speed=0.0139x    frame=  215 fps=0.6 q=45.0 size=    2861kB time=00:00:05.20 bitrate=4499.1kbits/s speed=0.0139x    frame=  216 fps=0.6 q=45.0 size=    2861kB time=00:00:05.25 bitrate=4463.1kbits/s speed=0.0139x    frame=  217 fps=0.6 q=45.0 size=    2861kB time=00:00:05.29 bitrate=4427.7kbits/s speed=0.0138x    frame=  218 fps=0.6 q=45.0 size=    2861kB time=00:00:05.33 bitrate=4393.7kbits/s speed=0.0138x    frame=  219 fps=0.6 q=45.0 size=    2861kB time=00:00:05.37 bitrate=4359.4kbits/s speed=0.0138x    frame=  220 fps=0.6 q=45.0 size=    2861kB time=00:00:05.41 bitrate=4325.6kbits/s speed=0.0139x    frame=  221 fps=0.6 q=45.0 size=    2861kB time=00:00:05.45 bitrate=4293.1kbits/s speed=0.0139x    frame=  222 fps=0.6 q=45.0 size=    2861kB time=00:00:05.50 bitrate=4260.3kbits/s speed=0.0139x    frame=  223 fps=0.6 q=45.0 size=    2861kB time=00:00:05.54 bitrate=4228.0kbits/s speed=0.0139x    frame=  224 fps=0.6 q=45.0 size=    2861kB time=00:00:05.58 bitrate=4197.0kbits/s speed=0.0139x    frame=  225 fps=0.6 q=45.0 size=    2861kB time=00:00:05.62 bitrate=4165.6kbits/s speed=0.0139x    frame=  226 fps=0.6 q=45.0 size=    2861kB time=00:00:05.66 bitrate=4134.8kbits/s speed=0.0139x    frame=  227 fps=0.6 q=45.0 size=    2861kB time=00:00:05.70 bitrate=4105.1kbits/s speed=0.0139x    frame=  228 fps=0.6 q=45.0 size=    2861kB time=00:00:05.75 bitrate=4075.1kbits/s speed=0.014x    frame=  229 fps=0.6 q=45.0 size=    2861kB time=00:00:05.79 bitrate=4045.6kbits/s speed=0.0139x    frame=  230 fps=0.5 q=45.0 size=    2861kB time=00:00:05.83 bitrate=4017.1kbits/s speed=0.0139x    frame=  231 fps=0.5 q=45.0 size=    2861kB time=00:00:05.87 bitrate=3988.4kbits/s speed=0.0139x    frame=  232 fps=0.5 q=45.0 size=    2861kB time=00:00:05.91 bitrate=3960.1kbits/s speed=0.014x    frame=  233 fps=0.5 q=45.0 size=    2861kB time=00:00:05.95 bitrate=3932.9kbits/s speed=0.014x    frame=  234 fps=0.5 q=45.0 size=    2861kB time=00:00:06.00 bitrate=3905.3kbits/s speed=0.014x    frame=  235 fps=0.5 q=45.0 size=    2861kB time=00:00:06.04 bitrate=3878.2kbits/s speed=0.014x    frame=  236 fps=0.5 q=45.0 size=    2861kB time=00:00:06.08 bitrate=3852.1kbits/s speed=0.014x    frame=  237 fps=0.5 q=45.0 size=    2861kB time=00:00:06.12 bitrate=3825.7kbits/s speed=0.0141x    frame=  238 fps=0.5 q=45.0 size=    2861kB time=00:00:06.16 bitrate=3799.6kbits/s speed=0.0141x    frame=  239 fps=0.5 q=45.0 size=    2861kB time=00:00:06.20 bitrate=3774.5kbits/s speed=0.0141x    frame=  240 fps=0.5 q=45.0 size=    2861kB time=00:00:06.25 bitrate=3749.1kbits/s speed=0.0141x    frame=  241 fps=0.5 q=45.0 size=    2861kB time=00:00:06.29 bitrate=3724.1kbits/s speed=0.0141x    frame=  242 fps=0.5 q=45.0 size=    2861kB time=00:00:06.33 bitrate=3700.0kbits/s speed=0.0142x    frame=  243 fps=0.5 q=45.0 size=    2861kB time=00:00:06.37 bitrate=3675.6kbits/s speed=0.0143x    frame=  244 fps=0.5 q=45.0 size=    2861kB time=00:00:06.41 bitrate=3651.6kbits/s speed=0.0143x    frame=  245 fps=0.5 q=45.0 size=    2861kB time=00:00:06.45 bitrate=3628.4kbits/s speed=0.0141x    frame=  246 fps=0.5 q=45.0 size=    2861kB time=00:00:06.50 bitrate=3605.0kbits/s speed=0.0141x    frame=  247 fps=0.5 q=45.0 size=    2861kB time=00:00:06.54 bitrate=3581.8kbits/s speed=0.0142x    frame=  248 fps=0.5 q=44.0 size=    2861kB time=00:00:06.58 bitrate=3559.5kbits/s speed=0.0142x    frame=  249 fps=0.5 q=44.0 size=    2861kB time=00:00:06.62 bitrate=3537.0kbits/s speed=0.0143x    frame=  250 fps=0.5 q=44.0 size=    2861kB time=00:00:06.66 bitrate=3514.7kbits/s speed=0.0143x    frame=  251 fps=0.5 q=44.0 size=    2861kB time=00:00:06.70 bitrate=3493.2kbits/s speed=0.0142x    frame=  252 fps=0.5 q=44.0 size=    2861kB time=00:00:06.75 bitrate=3471.5kbits/s speed=0.0142x    frame=  253 fps=0.5 q=44.0 size=    2861kB time=00:00:06.79 bitrate=3450.0kbits/s speed=0.0142x    frame=  254 fps=0.5 q=44.0 size=    2861kB time=00:00:06.83 bitrate=3429.3kbits/s speed=0.0142x    frame=  255 fps=0.5 q=44.0 size=    2861kB time=00:00:06.87 bitrate=3408.4kbits/s speed=0.0142x    frame=  256 fps=0.5 q=44.0 size=    2861kB time=00:00:06.91 bitrate=3387.7kbits/s speed=0.0142x    frame=  257 fps=0.5 q=44.0 size=    2861kB time=00:00:06.95 bitrate=3367.7kbits/s speed=0.0142x    frame=  258 fps=0.5 q=44.0 size=    2861kB time=00:00:07.00 bitrate=3347.5kbits/s speed=0.0143x    frame=  259 fps=0.5 q=44.0 size=    2861kB time=00:00:07.04 bitrate=3327.6kbits/s speed=0.0142x    frame=  260 fps=0.5 q=44.0 size=    2861kB time=00:00:07.08 bitrate=3308.3kbits/s speed=0.0142x    frame=  261 fps=0.5 q=44.0 size=    2861kB time=00:00:07.12 bitrate=3288.8kbits/s speed=0.0142x    frame=  262 fps=0.5 q=44.0 size=    2861kB time=00:00:07.16 bitrate=3269.5kbits/s speed=0.0142x    frame=  263 fps=0.5 q=44.0 size=    2861kB time=00:00:07.20 bitrate=3250.9kbits/s speed=0.0142x    frame=  264 fps=0.5 q=44.0 size=    2861kB time=00:00:07.25 bitrate=3232.1kbits/s speed=0.0143x    frame=  265 fps=0.5 q=44.0 size=    2861kB time=00:00:07.29 bitrate=3213.5kbits/s speed=0.0143x    frame=  266 fps=0.5 q=44.0 size=    2861kB time=00:00:07.33 bitrate=3195.5kbits/s speed=0.0143x    frame=  267 fps=0.5 q=44.0 size=    2861kB time=00:00:07.37 bitrate=3177.3kbits/s speed=0.0142x    frame=  268 fps=0.5 q=44.0 size=    2861kB time=00:00:07.41 bitrate=3159.3kbits/s speed=0.0143x    frame=  269 fps=0.5 q=44.0 size=    2861kB time=00:00:07.45 bitrate=3142.0kbits/s speed=0.0142x    frame=  270 fps=0.5 q=44.0 size=    2861kB time=00:00:07.50 bitrate=3124.4kbits/s speed=0.0143x    frame=  271 fps=0.5 q=44.0 size=    2861kB time=00:00:07.54 bitrate=3107.0kbits/s speed=0.0143x    frame=  272 fps=0.5 q=44.0 size=    2861kB time=00:00:07.58 bitrate=3090.2kbits/s speed=0.0143x    frame=  273 fps=0.5 q=44.0 size=    2861kB time=00:00:07.62 bitrate=3073.2kbits/s speed=0.0143x    frame=  274 fps=0.5 q=44.0 size=    2861kB time=00:00:07.66 bitrate=3056.3kbits/s speed=0.0143x    frame=  276 fps=0.5 q=44.0 size=    2861kB time=00:00:07.75 bitrate=3023.6kbits/s speed=0.0144x    frame=  277 fps=0.5 q=44.0 size=    2861kB time=00:00:07.79 bitrate=3007.3kbits/s speed=0.0144x    frame=  278 fps=0.5 q=44.0 size=    2861kB time=00:00:07.83 bitrate=2991.6kbits/s speed=0.0145x    frame=  279 fps=0.5 q=44.0 size=    2861kB time=00:00:07.87 bitrate=2975.6kbits/s speed=0.0143x    frame=  280 fps=0.5 q=44.0 size=    2861kB time=00:00:07.91 bitrate=2959.8kbits/s speed=0.0144x    frame=  281 fps=0.5 q=44.0 size=    2861kB time=00:00:07.95 bitrate=2944.6kbits/s speed=0.0144x    frame=  282 fps=0.5 q=44.0 size=    2861kB time=00:00:08.00 bitrate=2929.1kbits/s speed=0.0145x    frame=  283 fps=0.5 q=44.0 size=    2861kB time=00:00:08.04 bitrate=2913.8kbits/s speed=0.0145x    frame=  284 fps=0.5 q=44.0 size=    2861kB time=00:00:08.08 bitrate=2899.1kbits/s speed=0.0145x    frame=  285 fps=0.5 q=44.0 size=    2861kB time=00:00:08.12 bitrate=2884.1kbits/s speed=0.0144x    frame=  286 fps=0.5 q=44.0 size=    2861kB time=00:00:08.16 bitrate=2869.2kbits/s speed=0.0144x    frame=  287 fps=0.5 q=44.0 size=    2861kB time=00:00:08.20 bitrate=2854.9kbits/s speed=0.0144x    frame=  288 fps=0.5 q=44.0 size=    2861kB time=00:00:08.25 bitrate=2840.4kbits/s speed=0.0145x    frame=  289 fps=0.5 q=44.0 size=    2861kB time=00:00:08.29 bitrate=2826.0kbits/s speed=0.0145x    frame=  290 fps=0.5 q=44.0 size=    2861kB time=00:00:08.33 bitrate=2812.1kbits/s speed=0.0145x    frame=  291 fps=0.5 q=44.0 size=    2861kB time=00:00:08.37 bitrate=2798.0kbits/s speed=0.0144x    frame=  292 fps=0.5 q=44.0 size=    2861kB time=00:00:08.41 bitrate=2784.0kbits/s speed=0.0144x    frame=  293 fps=0.5 q=44.0 size=    2861kB time=00:00:08.45 bitrate=2770.5kbits/s speed=0.0144x    frame=  294 fps=0.5 q=44.0 size=    2861kB time=00:00:08.50 bitrate=2756.8kbits/s speed=0.0145x    frame=  295 fps=0.5 q=44.0 size=    2861kB time=00:00:08.54 bitrate=2743.3kbits/s speed=0.0145x    frame=  296 fps=0.5 q=43.0 size=    2861kB time=00:00:08.58 bitrate=2730.2kbits/s speed=0.0146x    frame=  297 fps=0.5 q=44.0 size=    2861kB time=00:00:08.62 bitrate=2716.9kbits/s speed=0.0144x    frame=  298 fps=0.5 q=43.0 size=    2861kB time=00:00:08.66 bitrate=2703.7kbits/s speed=0.0145x    frame=  299 fps=0.5 q=43.0 size=    2861kB time=00:00:08.70 bitrate=2691.0kbits/s speed=0.0145x    frame=  300 fps=0.5 q=43.0 size=    2861kB time=00:00:08.75 bitrate=2678.1kbits/s speed=0.0145x    frame=  301 fps=0.5 q=43.0 size=    2861kB time=00:00:08.79 bitrate=2665.3kbits/s speed=0.0145x    frame=  302 fps=0.5 q=43.0 size=    2861kB time=00:00:08.83 bitrate=2652.9kbits/s speed=0.0146x    frame=  303 fps=0.5 q=43.0 size=    2861kB time=00:00:08.87 bitrate=2640.4kbits/s speed=0.0146x    frame=  304 fps=0.5 q=43.0 size=    2861kB time=00:00:08.91 bitrate=2627.9kbits/s speed=0.0145x    frame=  305 fps=0.5 q=43.0 size=    2861kB time=00:00:08.95 bitrate=2615.9kbits/s speed=0.0145x    frame=  306 fps=0.5 q=43.0 size=    2861kB time=00:00:09.00 bitrate=2603.7kbits/s speed=0.0146x    frame=  307 fps=0.5 q=43.0 size=    2861kB time=00:00:09.04 bitrate=2591.6kbits/s speed=0.0146x    frame=  308 fps=0.5 q=43.0 size=    2861kB time=00:00:09.08 bitrate=2579.9kbits/s speed=0.0146x    frame=  309 fps=0.5 q=43.0 size=    2861kB time=00:00:09.12 bitrate=2568.0kbits/s speed=0.0147x    frame=  310 fps=0.5 q=43.0 size=    2861kB time=00:00:09.16 bitrate=2556.3kbits/s speed=0.0146x    frame=  311 fps=0.5 q=43.0 size=    2861kB time=00:00:09.20 bitrate=2544.9kbits/s speed=0.0146x    frame=  312 fps=0.5 q=43.0 size=    2861kB time=00:00:09.25 bitrate=2533.3kbits/s speed=0.0147x    frame=  314 fps=0.5 q=43.0 size=    2861kB time=00:00:09.33 bitrate=2510.8kbits/s speed=0.0147x    frame=  315 fps=0.5 q=43.0 size=    2861kB time=00:00:09.37 bitrate=2499.6kbits/s speed=0.0147x    frame=  316 fps=0.5 q=43.0 size=    2861kB time=00:00:09.41 bitrate=2488.4kbits/s speed=0.0147x    frame=  318 fps=0.5 q=43.0 size=    2861kB time=00:00:09.50 bitrate=2466.7kbits/s speed=0.0148x    frame=  319 fps=0.5 q=43.0 size=    2861kB time=00:00:09.54 bitrate=2455.8kbits/s speed=0.0148x    frame=  320 fps=0.5 q=43.0 size=    2861kB time=00:00:09.58 bitrate=2445.3kbits/s speed=0.0148x    frame=  321 fps=0.5 q=43.0 size=    2861kB time=00:00:09.62 bitrate=2434.6kbits/s speed=0.0147x    frame=  322 fps=0.5 q=43.0 size=    2861kB time=00:00:09.66 bitrate=2424.1kbits/s speed=0.0148x    frame=  323 fps=0.5 q=43.0 size=    2861kB time=00:00:09.70 bitrate=2413.8kbits/s speed=0.0148x    frame=  324 fps=0.5 q=43.0 size=    2861kB time=00:00:09.75 bitrate=2403.4kbits/s speed=0.0148x    frame=  325 fps=0.5 q=43.0 size=    2861kB time=00:00:09.79 bitrate=2393.1kbits/s speed=0.0149x    frame=  326 fps=0.5 q=43.0 size=    2861kB time=00:00:09.83 bitrate=2383.2kbits/s speed=0.0148x    frame=  327 fps=0.5 q=43.0 size=    2861kB time=00:00:09.87 bitrate=2373.0kbits/s speed=0.0149x    frame=  328 fps=0.5 q=43.0 size=    2861kB time=00:00:09.91 bitrate=2363.0kbits/s speed=0.0148x    frame=  329 fps=0.5 q=43.0 size=    5172kB time=00:00:09.95 bitrate=4254.6kbits/s speed=0.0148x    frame=  330 fps=0.5 q=43.0 size=    5172kB time=00:00:10.00 bitrate=4236.8kbits/s speed=0.0148x    frame=  331 fps=0.5 q=43.0 size=    5172kB time=00:00:10.04 bitrate=4219.1kbits/s speed=0.0149x    frame=  333 fps=0.5 q=40.0 size=    5172kB time=00:00:10.12 bitrate=4184.5kbits/s speed=0.0149x    frame=  334 fps=0.5 q=43.0 size=    5172kB time=00:00:10.16 bitrate=4167.2kbits/s speed=0.0148x    frame=  335 fps=0.5 q=43.0 size=    5172kB time=00:00:10.20 bitrate=4150.5kbits/s speed=0.0149x    frame=  336 fps=0.5 q=43.0 size=    5172kB time=00:00:10.25 bitrate=4133.5kbits/s speed=0.0149x    frame=  337 fps=0.5 q=43.0 size=    5172kB time=00:00:10.29 bitrate=4116.6kbits/s speed=0.0149x    frame=  338 fps=0.5 q=43.0 size=    5329kB time=00:00:10.33 bitrate=4224.8kbits/s speed=0.0149x    frame=  344 fps=0.5 q=42.0 size=    5329kB time=00:00:10.58 bitrate=4125.0kbits/s speed=0.0152x    frame=  346 fps=0.5 q=42.0 size=    5329kB time=00:00:10.66 bitrate=4092.5kbits/s speed=0.0153x    frame=  347 fps=0.5 q=42.0 size=    5329kB time=00:00:10.70 bitrate=4076.9kbits/s speed=0.0153x    frame=  348 fps=0.5 q=40.0 size=    5329kB time=00:00:10.75 bitrate=4060.9kbits/s speed=0.0154x    frame=  349 fps=0.5 q=42.0 size=    5329kB time=00:00:10.79 bitrate=4045.1kbits/s speed=0.0154x    frame=  350 fps=0.5 q=42.0 size=    5329kB time=00:00:10.83 bitrate=4029.8kbits/s speed=0.0155x    frame=  351 fps=0.5 q=42.0 size=    5329kB time=00:00:10.87 bitrate=4014.3kbits/s speed=0.0155x    frame=  353 fps=0.5 q=42.0 size=    5329kB time=00:00:10.95 bitrate=3983.9kbits/s speed=0.0156x    frame=  355 fps=0.5 q=42.0 size=    5329kB time=00:00:11.04 bitrate=3953.6kbits/s speed=0.0156x    frame=  356 fps=0.5 q=42.0 size=    5329kB time=00:00:11.08 bitrate=3938.9kbits/s speed=0.0156x    frame=  358 fps=0.5 q=42.0 size=    5329kB time=00:00:11.16 bitrate=3909.3kbits/s speed=0.0157x    frame=  360 fps=0.5 q=42.0 size=    5329kB time=00:00:11.25 bitrate=3880.5kbits/s speed=0.0158x    frame=  361 fps=0.5 q=42.0 size=    5329kB time=00:00:11.29 bitrate=3866.0kbits/s speed=0.0157x    frame=  362 fps=0.5 q=42.0 size=    5329kB time=00:00:11.33 bitrate=3852.1kbits/s speed=0.0157x    frame=  363 fps=0.5 q=42.0 size=    5329kB time=00:00:11.37 bitrate=3837.8kbits/s speed=0.0158x    frame=  365 fps=0.5 q=42.0 size=    5329kB time=00:00:11.45 bitrate=3810.0kbits/s speed=0.0158x    frame=  366 fps=0.5 q=42.0 size=    5329kB time=00:00:11.50 bitrate=3796.1kbits/s speed=0.0158x    frame=  367 fps=0.5 q=42.0 size=    5329kB time=00:00:11.54 bitrate=3782.3kbits/s speed=0.0159x    frame=  369 fps=0.5 q=42.0 size=    5329kB time=00:00:11.62 bitrate=3755.3kbits/s speed=0.0158x    frame=  371 fps=0.5 q=42.0 size=    5329kB time=00:00:11.70 bitrate=3728.7kbits/s speed=0.0159x    frame=  372 fps=0.5 q=42.0 size=    5329kB time=00:00:11.75 bitrate=3715.4kbits/s speed=0.0159x    frame=  373 fps=0.5 q=42.0 size=    5329kB time=00:00:11.79 bitrate=3702.1kbits/s speed=0.0159x    frame=  374 fps=0.5 q=42.0 size=    5329kB time=00:00:11.83 bitrate=3689.3kbits/s speed=0.0159x    frame=  376 fps=0.5 q=42.0 size=    5329kB time=00:00:11.91 bitrate=3663.3kbits/s speed=0.0159x    frame=  377 fps=0.5 q=42.0 size=    5329kB time=00:00:11.95 bitrate=3650.7kbits/s speed=0.016x    frame=  378 fps=0.5 q=42.0 size=    5329kB time=00:00:12.00 bitrate=3638.0kbits/s speed=0.016x    frame=  380 fps=0.5 q=41.0 size=    5329kB time=00:00:12.08 bitrate=3613.0kbits/s speed=0.016x    frame=  381 fps=0.5 q=41.0 size=    5329kB time=00:00:12.12 bitrate=3600.5kbits/s speed=0.016x    frame=  383 fps=0.5 q=41.0 size=    5329kB time=00:00:12.20 bitrate=3576.0kbits/s speed=0.0161x    frame=  385 fps=0.5 q=41.0 size=    5329kB time=00:00:12.29 bitrate=3551.6kbits/s speed=0.0161x    frame=  386 fps=0.5 q=41.0 size=    5329kB time=00:00:12.33 bitrate=3539.7kbits/s speed=0.0162x    frame=  388 fps=0.5 q=41.0 size=    5329kB time=00:00:12.41 bitrate=3515.8kbits/s speed=0.0162x    frame=  389 fps=0.5 q=41.0 size=    5329kB time=00:00:12.45 bitrate=3504.2kbits/s speed=0.0162x    frame=  390 fps=0.5 q=41.0 size=    5329kB time=00:00:12.50 bitrate=3492.5kbits/s speed=0.0163x    frame=  394 fps=0.5 q=41.0 size=    5329kB time=00:00:12.66 bitrate=3446.4kbits/s speed=0.0163x    frame=  396 fps=0.5 q=41.0 size=    5329kB time=00:00:12.75 bitrate=3424.0kbits/s speed=0.0164x    frame=  400 fps=0.5 q=40.0 size=    5329kB time=00:00:12.91 bitrate=3379.7kbits/s speed=0.0164x    frame=  402 fps=0.5 q=41.0 size=    5329kB time=00:00:13.00 bitrate=3358.1kbits/s speed=0.0165x    frame=  406 fps=0.5 q=40.0 size=    5329kB time=00:00:13.16 bitrate=3315.6kbits/s speed=0.0165x    frame=  408 fps=0.5 q=40.0 size=    5329kB time=00:00:13.25 bitrate=3294.8kbits/s speed=0.0166x    frame=  411 fps=0.5 q=40.0 size=    5329kB time=00:00:13.37 bitrate=3264.0kbits/s speed=0.0167x    frame=  412 fps=0.5 q=40.0 size=    5329kB time=00:00:13.41 bitrate=3253.8kbits/s speed=0.0167x    frame=  414 fps=0.5 q=40.0 size=    5329kB time=00:00:13.50 bitrate=3233.8kbits/s speed=0.0168x    frame=  416 fps=0.5 q=40.0 size=    5329kB time=00:00:13.58 bitrate=3214.0kbits/s speed=0.0167x    frame=  418 fps=0.5 q=40.0 size=    5329kB time=00:00:13.66 bitrate=3194.3kbits/s speed=0.0168x    frame=  421 fps=0.5 q=40.0 size=    5329kB time=00:00:13.79 bitrate=3165.3kbits/s speed=0.0169x    frame=  422 fps=0.5 q=40.0 size=    5329kB time=00:00:13.83 bitrate=3155.9kbits/s speed=0.0169x    frame=  423 fps=0.5 q=40.0 size=    5329kB time=00:00:13.87 bitrate=3146.4kbits/s speed=0.0169x    frame=  426 fps=0.5 q=39.0 size=    5329kB time=00:00:14.00 bitrate=3118.3kbits/s speed=0.0169x    frame=  428 fps=0.5 q=39.0 size=    5329kB time=00:00:14.08 bitrate=3099.9kbits/s speed=0.017x    frame=  432 fps=0.5 q=39.0 size=    5329kB time=00:00:14.25 bitrate=3063.6kbits/s speed=0.017x    frame=  434 fps=0.5 q=39.0 size=    5329kB time=00:00:14.33 bitrate=3045.9kbits/s speed=0.0171x    frame=  438 fps=0.5 q=39.0 size=    5329kB time=00:00:14.50 bitrate=3010.8kbits/s speed=0.0171x    frame=  440 fps=0.5 q=39.0 size=    5329kB time=00:00:14.58 bitrate=2993.6kbits/s speed=0.0172x    frame=  444 fps=0.5 q=39.0 size=    5329kB time=00:00:14.75 bitrate=2959.7kbits/s speed=0.0173x    frame=  445 fps=0.5 q=38.0 size=    5329kB time=00:00:14.79 bitrate=2951.3kbits/s speed=0.0173x    frame=  447 fps=0.5 q=38.0 size=    5329kB time=00:00:14.87 bitrate=2934.9kbits/s speed=0.0174x    frame=  448 fps=0.5 q=38.0 size=    5329kB time=00:00:14.91 bitrate=2926.6kbits/s speed=0.0172x    frame=  449 fps=0.5 q=38.0 size=    5329kB time=00:00:14.95 bitrate=2918.6kbits/s speed=0.0173x    frame=  450 fps=0.5 q=38.0 size=    5329kB time=00:00:15.00 bitrate=2910.4kbits/s speed=0.0173x    frame=  452 fps=0.5 q=38.0 size=    5329kB time=00:00:15.08 bitrate=2894.4kbits/s speed=0.0173x    frame=  453 fps=0.5 q=38.0 size=    5329kB time=00:00:15.12 bitrate=2886.4kbits/s speed=0.0173x    frame=  454 fps=0.5 q=38.0 size=    5329kB time=00:00:15.16 bitrate=2878.4kbits/s speed=0.0174x    frame=  455 fps=0.5 q=38.0 size=    5329kB time=00:00:15.20 bitrate=2870.6kbits/s speed=0.0172x    frame=  456 fps=0.5 q=38.0 size=    5329kB time=00:00:15.25 bitrate=2862.7kbits/s speed=0.0173x    frame=  457 fps=0.5 q=38.0 size=    5329kB time=00:00:15.29 bitrate=2854.9kbits/s speed=0.0173x    frame=  458 fps=0.5 q=38.0 size=    6987kB time=00:00:15.33 bitrate=3732.8kbits/s speed=0.0173x    frame=  459 fps=0.5 q=38.0 size=    6987kB time=00:00:15.37 bitrate=3722.6kbits/s speed=0.0173x    frame=  460 fps=0.5 q=38.0 size=    6987kB time=00:00:15.41 bitrate=3712.5kbits/s speed=0.0173x    frame=  461 fps=0.5 q=38.0 size=    6987kB time=00:00:15.45 bitrate=3702.6kbits/s speed=0.0173x    frame=  463 fps=0.5 q=38.0 size=    6987kB time=00:00:15.54 bitrate=3682.6kbits/s speed=0.0173x    frame=  464 fps=0.5 q=38.0 size=    6987kB time=00:00:15.58 bitrate=3672.9kbits/s speed=0.0173x    frame=  465 fps=0.5 q=38.0 size=    6987kB time=00:00:15.62 bitrate=3663.1kbits/s speed=0.0173x    frame=  467 fps=0.5 q=38.0 size=    6987kB time=00:00:15.70 bitrate=3643.7kbits/s speed=0.0173x    frame=  468 fps=0.5 q=38.0 size=    6987kB time=00:00:15.75 bitrate=3634.0kbits/s speed=0.0174x    frame=  469 fps=0.5 q=38.0 size=    6987kB time=00:00:15.79 bitrate=3624.3kbits/s speed=0.0174x    frame=  470 fps=0.5 q=38.0 size=    6987kB time=00:00:15.83 bitrate=3614.9kbits/s speed=0.0173x    frame=  471 fps=0.5 q=38.0 size=    6987kB time=00:00:15.87 bitrate=3605.4kbits/s speed=0.0173x    frame=  472 fps=0.5 q=38.0 size=    6987kB time=00:00:15.91 bitrate=3595.9kbits/s speed=0.0174x    frame=  476 fps=0.5 q=38.0 size=    6987kB time=00:00:16.08 bitrate=3558.8kbits/s speed=0.0173x    frame=  477 fps=0.5 q=38.0 size=    6987kB time=00:00:16.12 bitrate=3549.5kbits/s speed=0.0173x    frame=  478 fps=0.5 q=38.0 size=    6987kB time=00:00:16.16 bitrate=3540.3kbits/s speed=0.0174x    frame=  479 fps=0.5 q=38.0 size=    6987kB time=00:00:16.20 bitrate=3531.3kbits/s speed=0.0174x    frame=  480 fps=0.5 q=38.0 size=    6987kB time=00:00:16.25 bitrate=3522.2kbits/s speed=0.0174x    frame=  481 fps=0.5 q=38.0 size=    6987kB time=00:00:16.29 bitrate=3513.1kbits/s speed=0.0174x    frame=  482 fps=0.5 q=38.0 size=    6987kB time=00:00:16.33 bitrate=3504.3kbits/s speed=0.0174x    frame=  483 fps=0.5 q=38.0 size=    6987kB time=00:00:16.37 bitrate=3495.3kbits/s speed=0.0173x    frame=  484 fps=0.5 q=38.0 size=    6987kB time=00:00:16.41 bitrate=3486.4kbits/s speed=0.0173x    frame=  485 fps=0.5 q=38.0 size=    6987kB time=00:00:16.45 bitrate=3477.7kbits/s speed=0.0173x    frame=  487 fps=0.5 q=38.0 size=    6987kB time=00:00:16.54 bitrate=3460.0kbits/s speed=0.0174x    frame=  488 fps=0.5 q=38.0 size=    6987kB time=00:00:16.58 bitrate=3451.5kbits/s speed=0.0174x    frame=  489 fps=0.5 q=38.0 size=    6987kB time=00:00:16.62 bitrate=3442.7kbits/s speed=0.0174x    frame=  490 fps=0.5 q=38.0 size=    6987kB time=00:00:16.66 bitrate=3434.1kbits/s speed=0.0172x    frame=  491 fps=0.5 q=38.0 size=    6987kB time=00:00:16.70 bitrate=3425.6kbits/s speed=0.0173x    frame=  492 fps=0.5 q=38.0 size=    6987kB time=00:00:16.75 bitrate=3417.1kbits/s speed=0.0173x    frame=  493 fps=0.5 q=38.0 size=    6987kB time=00:00:16.79 bitrate=3408.5kbits/s speed=0.0173x    frame=  494 fps=0.5 q=38.0 size=    6987kB time=00:00:16.83 bitrate=3400.2kbits/s speed=0.0173x    frame=  495 fps=0.5 q=38.0 size=    6987kB time=00:00:16.87 bitrate=3391.7kbits/s speed=0.0173x    frame=  496 fps=0.5 q=38.0 size=    6987kB time=00:00:16.91 bitrate=3383.3kbits/s speed=0.0173x    frame=  497 fps=0.5 q=38.0 size=    6987kB time=00:00:16.95 bitrate=3375.1kbits/s speed=0.0172x    frame=  498 fps=0.5 q=38.0 size=    6987kB time=00:00:17.00 bitrate=3366.8kbits/s speed=0.0173x    frame=  499 fps=0.5 q=38.0 size=    6987kB time=00:00:17.04 bitrate=3358.5kbits/s speed=0.0173x    frame=  500 fps=0.5 q=38.0 size=    6987kB time=00:00:17.08 bitrate=3350.4kbits/s speed=0.0173x    frame=  500 fps=0.4 q=-1.0 Lsize=    9507kB time=00:00:20.70 bitrate=3760.7kbits/s speed=0.0178x    
video:9502kB audio:0kB subtitle:0kB other streams:0kB global headers:0kB muxing overhead: 0.047984%
bench: utime=4356.844s
bench: maxrss=4179032kB
[libx264 @ 0x42991c0] frame I:3     Avg QP:32.56  size:105515
[libx264 @ 0x42991c0] frame P:267   Avg QP:40.78  size: 25384
[libx264 @ 0x42991c0] frame B:230   Avg QP:40.13  size: 11459
[libx264 @ 0x42991c0] consecutive B-frames: 34.8% 13.6% 12.0% 16.0% 14.0%  9.6%  0.0%  0.0%  0.0%  0.0%  0.0%  0.0%  0.0%  0.0%  0.0%  0.0%  0.0%
[libx264 @ 0x42991c0] mb I  I16..4: 19.3% 68.4% 12.3%
[libx264 @ 0x42991c0] mb P  I16..4:  7.8% 12.3% 16.1%  P16..4: 22.3%  7.7%  0.8%  0.0%  0.0%    skip:33.1%
[libx264 @ 0x42991c0] mb B  I16..4:  0.8%  0.9%  0.4%  B16..8: 26.3%  3.3%  0.3%  direct: 0.3%  skip:67.8%  L0:39.1% L1:59.8% BI: 1.1%
[libx264 @ 0x42991c0] final ratefactor: 35.37
[libx264 @ 0x42991c0] 8x8 transform intra:35.4% inter:87.4%
[libx264 @ 0x42991c0] direct mvs  spatial:98.7% temporal:1.3%
[libx264 @ 0x42991c0] coded y,uvDC,uvAC intra: 7.0% 9.7% 0.2% inter: 1.1% 1.1% 0.0%
[libx264 @ 0x42991c0] i16 v,h,dc,p:  7% 18%  3% 72%
[libx264 @ 0x42991c0] i8 v,h,dc,ddl,ddr,vr,hd,vl,hu: 20%  6% 57%  2%  3%  2%  3%  2%  4%
[libx264 @ 0x42991c0] i4 v,h,dc,ddl,ddr,vr,hd,vl,hu:  9%  2% 89%  0%  0%  0%  0%  0%  0%
[libx264 @ 0x42991c0] i8c dc,h,v,p: 51% 37%  5%  7%
[libx264 @ 0x42991c0] Weighted P-Frames: Y:3.0% UV:2.6%
[libx264 @ 0x42991c0] ref P L0: 42.5% 23.3% 14.8%  4.6%  3.2%  2.5%  2.3%  1.1%  1.1%  0.9%  0.8%  0.7%  0.6%  0.6%  0.5%  0.4%
[libx264 @ 0x42991c0] ref B L0: 90.0%  4.6%  2.0%  0.8%  0.6%  0.5%  0.4%  0.2%  0.2%  0.2%  0.1%  0.1%  0.1%  0.1%  0.1%
[libx264 @ 0x42991c0] ref B L1: 98.6%  1.4%
[libx264 @ 0x42991c0] kb/s:3736.17
